<svg width="30" height="24" viewBox="0 0 30 24" fill="none" xmlns="http://www.w3.org/2000/svg">
<path d="M30 12.375V11.625C30 11.2106 29.6644 10.875 29.25 10.875H16.125V9H19.5C20.3283 9 21 8.32828 21 7.5V1.5C21 0.671719 20.3283 0 19.5 0H10.5C9.67172 0 9 0.671719 9 1.5V7.5C9 8.32828 9.67172 9 10.5 9H13.875V10.875H0.75C0.335625 10.875 0 11.2106 0 11.625V12.375C0 12.7894 0.335625 13.125 0.75 13.125H5.625V15H3C2.17172 15 1.5 15.6717 1.5 16.5V22.5C1.5 23.3283 2.17172 24 3 24H10.5C11.3283 24 12 23.3283 12 22.5V16.5C12 15.6717 11.3283 15 10.5 15H7.875V13.125H22.125V15H19.5C18.6717 15 18 15.6717 18 16.5V22.5C18 23.3283 18.6717 24 19.5 24H27C27.8283 24 28.5 23.3283 28.5 22.5V16.5C28.5 15.6717 27.8283 15 27 15H24.375V13.125H29.25C29.6644 13.125 30 12.7894 30 12.375ZM12 6V3H18V6H12ZM9 21H4.5V18H9V21ZM25.5 21H21V18H25.5V21Z" fill="#EEEEEE"/>
</svg>
