<svg width="28" height="25" viewBox="0 0 28 25" fill="none" xmlns="http://www.w3.org/2000/svg">
<path d="M4.66667 6.25C5.28199 6.25 5.88349 6.06672 6.39511 5.72334C6.90673 5.37996 7.30549 4.89191 7.54096 4.32089C7.77643 3.74987 7.83804 3.12154 7.718 2.51534C7.59796 1.90915 7.30165 1.35233 6.86655 0.915293C6.43146 0.478254 5.87711 0.180626 5.27361 0.0600474C4.67012 -0.0605314 4.04458 0.001354 3.4761 0.237878C2.90761 0.474402 2.42173 0.874941 2.07987 1.38884C1.73802 1.90275 1.55556 2.50693 1.55556 3.125C1.55556 3.9538 1.88333 4.74866 2.46678 5.33471C3.05023 5.92076 3.84155 6.25 4.66667 6.25ZM4.66667 14.8477C4.66597 14.5557 4.72439 14.2666 4.83838 13.998C4.95236 13.7294 5.11953 13.4869 5.32972 13.2852L8.83604 9.96094C8.91625 9.88526 9.01931 9.84815 9.10875 9.78662C8.87998 9.2049 8.48246 8.70565 7.96775 8.35364C7.45305 8.00163 6.84491 7.81309 6.22222 7.8125H3.11111C2.28599 7.8125 1.49467 8.14174 0.911223 8.72779C0.327777 9.31384 0 10.1087 0 10.9375L0 15.625C0 16.0394 0.163888 16.4368 0.455612 16.7299C0.747335 17.0229 1.143 17.1875 1.55556 17.1875V23.4375C1.55556 23.8519 1.71944 24.2493 2.01117 24.5424C2.30289 24.8354 2.69855 25 3.11111 25H6.22222C6.63478 25 7.03044 24.8354 7.32217 24.5424C7.61389 24.2493 7.77778 23.8519 7.77778 23.4375V18.731L5.32972 16.4102C5.11946 16.2085 4.95225 15.966 4.83826 15.6974C4.72427 15.4288 4.66589 15.1397 4.66667 14.8477ZM23.3333 6.25C23.9487 6.25 24.5502 6.06672 25.0618 5.72334C25.5734 5.37996 25.9722 4.89191 26.2076 4.32089C26.4431 3.74987 26.5047 3.12154 26.3847 2.51534C26.2646 1.90915 25.9683 1.35233 25.5332 0.915293C25.0981 0.478254 24.5438 0.180626 23.9403 0.0600474C23.3368 -0.0605314 22.7112 0.001354 22.1428 0.237878C21.5743 0.474402 21.0884 0.874941 20.7465 1.38884C20.4047 1.90275 20.2222 2.50693 20.2222 3.125C20.2222 3.9538 20.55 4.74866 21.1334 5.33471C21.7169 5.92076 22.5082 6.25 23.3333 6.25ZM24.8889 7.8125H21.7778C21.1551 7.81306 20.5471 8.00151 20.0324 8.35344C19.5177 8.70536 19.1201 9.2045 18.8913 9.78613C18.9807 9.84815 19.0857 9.88379 19.1644 9.96143L22.6703 13.2847C22.8798 13.4868 23.0466 13.7295 23.1604 13.998C23.2743 14.2665 23.333 14.5553 23.333 14.8472C23.333 15.139 23.2743 15.4279 23.1604 15.6964C23.0466 15.9649 22.8798 16.2075 22.6703 16.4097L20.2222 18.7314V23.4375C20.2222 23.8519 20.3861 24.2493 20.6778 24.5424C20.9696 24.8354 21.3652 25 21.7778 25H24.8889C25.3014 25 25.6971 24.8354 25.9888 24.5424C26.2806 24.2493 26.4444 23.8519 26.4444 23.4375V17.1875C26.857 17.1875 27.2527 17.0229 27.5444 16.7299C27.8361 16.4368 28 16.0394 28 15.625V10.9375C28 10.1087 27.6722 9.31384 27.0888 8.72779C26.5053 8.14174 25.714 7.8125 24.8889 7.8125ZM21.6028 14.4209L18.0969 11.0977C18.0142 11.0184 17.9101 10.9654 17.7976 10.9451C17.685 10.9248 17.569 10.9381 17.464 10.9835C17.359 11.0288 17.2695 11.1042 17.2068 11.2002C17.1441 11.2962 17.1108 11.4086 17.1111 11.5234V13.2813H10.8889V11.5234C10.8893 11.4086 10.8561 11.2961 10.7934 11.2C10.7307 11.1039 10.6413 11.0285 10.5362 10.9831C10.4312 10.9377 10.3151 10.9243 10.2026 10.9445C10.09 10.9648 9.98584 11.0179 9.90306 11.0972L6.39722 14.4209C6.28516 14.5343 6.22228 14.6876 6.22228 14.8474C6.22228 15.0072 6.28516 15.1605 6.39722 15.2739L9.90306 18.5977C9.98587 18.677 10.0901 18.73 10.2027 18.7503C10.3153 18.7706 10.4314 18.7571 10.5364 18.7117C10.6415 18.6662 10.7309 18.5907 10.7936 18.4945C10.8563 18.3984 10.8894 18.2858 10.8889 18.1709V16.4063H17.1111V18.1709C17.1106 18.2858 17.1437 18.3984 17.2064 18.4945C17.2691 18.5907 17.3585 18.6662 17.4636 18.7117C17.5686 18.7571 17.6847 18.7706 17.7973 18.7503C17.9099 18.73 18.0141 18.677 18.0969 18.5977L21.6028 15.2739C21.7148 15.1605 21.7777 15.0072 21.7777 14.8474C21.7777 14.6876 21.7148 14.5343 21.6028 14.4209Z" fill="#EEEEEE"/>
</svg>
